<svg width="24" height="24" viewBox="0 0 24 24" fill="none" xmlns="http://www.w3.org/2000/svg">
<rect width="24" height="24" fill="#F45A07"/>
<path d="M17 20C17 18.0118 14.7614 16.4 12 16.4C9.23858 16.4 7 18.0118 7 20M21 16.4004C21 14.9242 19.7659 13.6555 18 13.1M3 16.4004C3 14.9242 4.2341 13.6555 6 13.1M18 8.28333C18.6137 7.62414 19 6.6662 19 5.6C19 3.61177 17.6569 2 16 2C15.2316 2 14.5308 2.34662 14 2.91667M6 8.28333C5.38625 7.62414 5 6.6662 5 5.6C5 3.61177 6.34315 2 8 2C8.76835 2 9.46924 2.34662 10 2.91667M12 12.8C10.3431 12.8 9 11.1882 9 9.2C9 7.21177 10.3431 5.6 12 5.6C13.6569 5.6 15 7.21177 15 9.2C15 11.1882 13.6569 12.8 12 12.8Z" stroke="white" stroke-width="2" stroke-linecap="round" stroke-linejoin="round"/>
</svg>
